<svg data-name="Layer 1" version="1.1" viewBox="0 0 256 256" xmlns="http://www.w3.org/2000/svg"><path d="m256 128c-26.44-73.71-75.2-119.1-128-119.1-52.8 0-101.6 45.42-128 119.1 26.45 73.75 75.22 119.2 128 119.2 52.8 0 101.6-45.41 128-119.1z" fill="#0aa" stroke-width="1.005"/><g fill="none" stroke="#fff" stroke-linecap="round" stroke-linejoin="round"><polyline transform="matrix(.96 0 0 .9492 10.13 8.501)" points="194.8 106.1 194.8 181.9 50.78 181.9 50.78 69.9 151 69.9" stroke-width="6.286"/><polyline transform="matrix(.96 0 0 .937 10.13 5.431)" points="50.78 157.7 92.92 118.2 122 145.6 152.6 106.1 194.8 154.8" stroke-width="6.326"/><ellipse cx="112.7" cy="97.7" rx="11.81" ry="11.75" stroke-width="5"/></g><path d="m191.4 75.83a20.16 20.17 0 0 0-13.55 13.55 0.863 0.8636 0 0 1-1.654 0 20.17 20.18 0 0 0-13.55-13.55 0.863 0.8636 0 0 1 0-1.666 20.17 20.18 0 0 0 13.55-13.55 0.863 0.8636 0 0 1 1.654 0 20.16 20.17 0 0 0 13.55 13.55 0.8733 0.8739 0 0 1 0 1.666z" fill="#fff" stroke-width="1.028"/><path d="m205.6 93.51a12.13 12.15 0 0 0-8.139 8.15 0.5148 0.5154 0 0 1-0.9713 0 12.13 12.15 0 0 0-8.139-8.15 0.5148 0.5154 0 0 1 0-0.9725 12.15 12.17 0 0 0 8.12-8.189 0.5148 0.5154 0 0 1 0.9713 0 12.15 12.17 0 0 0 8.139 8.15 0.5148 0.5154 0 0 1 0.0194 1.011z" fill="#fff" stroke-width=".9719"/></svg>
